<?xml version="1.0" encoding="UTF-8" standalone="no"?>
<!DOCTYPE svg PUBLIC "-//W3C//DTD SVG 1.1//EN"
 "http://www.w3.org/Graphics/SVG/1.1/DTD/svg11.dtd">
<!-- Generated by graphviz version 2.38.0 (20140413.2041)
 -->
<!-- Title: %3 Pages: 1 -->
<svg width="1693pt" height="476pt"
 viewBox="0.00 0.00 1692.70 476.00" xmlns="http://www.w3.org/2000/svg" xmlns:xlink="http://www.w3.org/1999/xlink">
<g id="graph0" class="graph" transform="scale(1 1) rotate(0) translate(4 472)">
<title>%3</title>
<polygon fill="white" stroke="none" points="-4,4 -4,-472 1688.7,-472 1688.7,4 -4,4"/>
<!-- _condition_hello_0_cond -->
<g id="node1" class="node"><title>_condition_hello_0_cond</title>
<polygon fill="#e8e3c8" stroke="gray" points="93.9377,-442.544 93.9377,-457.456 76.6023,-468 52.0863,-468 34.7508,-457.456 34.7508,-442.544 52.0863,-432 76.6023,-432 93.9377,-442.544"/>
<text text-anchor="middle" x="64.3443" y="-446.3" font-family="Times,serif" font-size="14.00">True</text>
</g>
<!-- CheckMessage -->
<g id="node2" class="node"><title>CheckMessage</title>
<ellipse fill="#66cfa7" stroke="black" cx="64.3443" cy="-378" rx="64.189" ry="18"/>
<text text-anchor="middle" x="64.3443" y="-374.3" font-family="Times,serif" font-size="14.00">CheckMessage</text>
</g>
<!-- _condition_hello_0_cond&#45;&gt;CheckMessage -->
<g id="edge2" class="edge"><title>_condition_hello_0_cond&#45;&gt;CheckMessage</title>
<path fill="none" stroke="black" d="M64.3443,-431.697C64.3443,-423.983 64.3443,-414.712 64.3443,-406.112"/>
<polygon fill="black" stroke="black" points="67.8444,-406.104 64.3443,-396.104 60.8444,-406.104 67.8444,-406.104"/>
</g>
<!-- Redis -->
<g id="node3" class="node"><title>Redis</title>
<polygon fill="#894830" stroke="black" points="91.3443,-36 37.3443,-36 37.3443,-0 91.3443,-0 91.3443,-36"/>
<text text-anchor="middle" x="64.3443" y="-14.3" font-family="Times,serif" font-size="14.00">Redis</text>
</g>
<!-- CheckMessage&#45;&gt;Redis -->
<g id="edge1" class="edge"><title>CheckMessage&#45;&gt;Redis</title>
<path fill="none" stroke="#894830" stroke-dasharray="5,2" d="M56.6544,-359.907C45.5507,-333.623 26.3443,-281.447 26.3443,-235 26.3443,-235 26.3443,-235 26.3443,-161 26.3443,-119.633 41.5791,-73.7216 52.756,-45.6051"/>
<polygon fill="#894830" stroke="#894830" points="56.1007,-46.6733 56.6544,-36.0929 49.6235,-44.0187 56.1007,-46.6733"/>
</g>
<!-- _condition_hello_1_cond -->
<g id="node4" class="node"><title>_condition_hello_1_cond</title>
<polygon fill="#e8e3c8" stroke="gray" points="131.938,-298.544 131.938,-313.456 114.602,-324 90.0863,-324 72.7508,-313.456 72.7508,-298.544 90.0863,-288 114.602,-288 131.938,-298.544"/>
<text text-anchor="middle" x="102.344" y="-302.3" font-family="Times,serif" font-size="14.00">True</text>
</g>
<!-- CheckMessage&#45;&gt;_condition_hello_1_cond -->
<g id="edge3" class="edge"><title>CheckMessage&#45;&gt;_condition_hello_1_cond</title>
<path fill="none" stroke="black" d="M73.543,-360.055C77.9121,-352.007 83.2332,-342.205 88.1074,-333.226"/>
<polygon fill="black" stroke="black" points="91.2713,-334.734 92.9663,-324.275 85.1193,-331.394 91.2713,-334.734"/>
</g>
<!-- MessageLength -->
<g id="node5" class="node"><title>MessageLength</title>
<ellipse fill="#66cfa7" stroke="black" cx="121.344" cy="-234" rx="66.8882" ry="18"/>
<text text-anchor="middle" x="121.344" y="-230.3" font-family="Times,serif" font-size="14.00">MessageLength</text>
</g>
<!-- _condition_hello_1_cond&#45;&gt;MessageLength -->
<g id="edge5" class="edge"><title>_condition_hello_1_cond&#45;&gt;MessageLength</title>
<path fill="none" stroke="black" d="M107.041,-287.697C109.158,-279.898 111.706,-270.509 114.062,-261.829"/>
<polygon fill="black" stroke="black" points="117.46,-262.672 116.702,-252.104 110.704,-260.838 117.46,-262.672"/>
</g>
<!-- MessageLength&#45;&gt;Redis -->
<g id="edge4" class="edge"><title>MessageLength&#45;&gt;Redis</title>
<path fill="none" stroke="#894830" stroke-dasharray="5,2" d="M105.887,-216.169C97.7857,-206.349 88.4997,-193.302 83.3443,-180 66.073,-135.438 63.3545,-79.1572 63.4817,-46.3097"/>
<polygon fill="#894830" stroke="#894830" points="66.9839,-46.1648 63.6171,-36.1192 59.9845,-46.0718 66.9839,-46.1648"/>
</g>
<!-- _condition_hello_2_cond -->
<g id="node6" class="node"><title>_condition_hello_2_cond</title>
<polygon fill="#e8e3c8" stroke="gray" points="1684.55,-154.544 1684.55,-169.456 1218.14,-180 558.545,-180 92.1372,-169.456 92.1372,-154.544 558.545,-144 1218.14,-144 1684.55,-154.544"/>
<text text-anchor="middle" x="888.344" y="-158.3" font-family="Times,serif" font-size="14.00">(fieldEqual(db.get(&#39;MessageLength&#39;), key=&#39;status&#39;, value=True) and fieldEqual(db.get(&#39;MessageLength&#39;), key=&#39;checkvalue&#39;, value=True) and fieldEqual(db.get(&#39;MessageLength&#39;), key=&#39;length&#39;, value=True))</text>
</g>
<!-- MessageLength&#45;&gt;_condition_hello_2_cond -->
<g id="edge6" class="edge"><title>MessageLength&#45;&gt;_condition_hello_2_cond</title>
<path fill="none" stroke="black" d="M183.786,-227.301C293.266,-217.31 524.142,-196.239 691.846,-180.933"/>
<polygon fill="black" stroke="black" points="692.402,-184.397 702.043,-180.003 691.766,-177.426 692.402,-184.397"/>
</g>
<!-- SuccessAction -->
<g id="node7" class="node"><title>SuccessAction</title>
<ellipse fill="#66cfa7" stroke="black" cx="521.344" cy="-90" rx="62.2891" ry="18"/>
<text text-anchor="middle" x="521.344" y="-86.3" font-family="Times,serif" font-size="14.00">SuccessAction</text>
</g>
<!-- _condition_hello_2_cond&#45;&gt;SuccessAction -->
<g id="edge8" class="edge"><title>_condition_hello_2_cond&#45;&gt;SuccessAction</title>
<path fill="none" stroke="black" d="M799.035,-143.966C731.644,-131.112 640.997,-113.822 581.885,-102.547"/>
<polygon fill="black" stroke="black" points="582.431,-99.0885 571.953,-100.653 581.12,-105.965 582.431,-99.0885"/>
</g>
<!-- SuccessAction&#45;&gt;Redis -->
<g id="edge7" class="edge"><title>SuccessAction&#45;&gt;Redis</title>
<path fill="none" stroke="#894830" stroke-dasharray="5,2" d="M467.577,-80.7643C373.754,-66.3931 182.441,-37.0892 101.663,-24.7162"/>
<polygon fill="#894830" stroke="#894830" points="101.884,-21.2094 91.4697,-23.1549 100.824,-28.1287 101.884,-21.2094"/>
</g>
</g>
</svg>
