<?xml version="1.0" encoding="UTF-8" standalone="no"?>
<!DOCTYPE svg PUBLIC "-//W3C//DTD SVG 1.1//EN"
 "http://www.w3.org/Graphics/SVG/1.1/DTD/svg11.dtd">
<!-- Generated by graphviz version 2.38.0 (20140413.2041)
 -->
<!-- Title: %3 Pages: 1 -->
<svg width="2190pt" height="476pt"
 viewBox="0.00 0.00 2189.55 476.00" xmlns="http://www.w3.org/2000/svg" xmlns:xlink="http://www.w3.org/1999/xlink">
<g id="graph0" class="graph" transform="scale(1 1) rotate(0) translate(4 472)">
<title>%3</title>
<polygon fill="white" stroke="none" points="-4,4 -4,-472 2185.55,-472 2185.55,4 -4,4"/>
<!-- _condition_hello_0_cond -->
<g id="node1" class="node"><title>_condition_hello_0_cond</title>
<polygon fill="#e8e3c8" stroke="gray" points="891.593,-442.544 891.593,-457.456 874.258,-468 849.742,-468 832.407,-457.456 832.407,-442.544 849.742,-432 874.258,-432 891.593,-442.544"/>
<text text-anchor="middle" x="862" y="-446.3" font-family="Times,serif" font-size="14.00">True</text>
</g>
<!-- CheckMessage -->
<g id="node2" class="node"><title>CheckMessage</title>
<ellipse fill="#66cfa7" stroke="black" cx="862" cy="-378" rx="64.189" ry="18"/>
<text text-anchor="middle" x="862" y="-374.3" font-family="Times,serif" font-size="14.00">CheckMessage</text>
</g>
<!-- _condition_hello_0_cond&#45;&gt;CheckMessage -->
<g id="edge2" class="edge"><title>_condition_hello_0_cond&#45;&gt;CheckMessage</title>
<path fill="none" stroke="black" d="M862,-431.697C862,-423.983 862,-414.712 862,-406.112"/>
<polygon fill="black" stroke="black" points="865.5,-406.104 862,-396.104 858.5,-406.104 865.5,-406.104"/>
</g>
<!-- Redis -->
<g id="node3" class="node"><title>Redis</title>
<polygon fill="#894830" stroke="black" points="65,-36 11,-36 11,-0 65,-0 65,-36"/>
<text text-anchor="middle" x="38" y="-14.3" font-family="Times,serif" font-size="14.00">Redis</text>
</g>
<!-- CheckMessage&#45;&gt;Redis -->
<g id="edge1" class="edge"><title>CheckMessage&#45;&gt;Redis</title>
<path fill="none" stroke="#894830" stroke-dasharray="5,2" d="M799.66,-373.318C601.655,-360.801 0,-316.096 0,-235 0,-235 0,-235 0,-161 0,-119.633 15.2348,-73.7216 26.4117,-45.6051"/>
<polygon fill="#894830" stroke="#894830" points="29.7564,-46.6733 30.3101,-36.0929 23.2793,-44.0187 29.7564,-46.6733"/>
</g>
<!-- _condition_hello_1_cond -->
<g id="node4" class="node"><title>_condition_hello_1_cond</title>
<polygon fill="#e8e3c8" stroke="gray" points="891.593,-298.544 891.593,-313.456 874.258,-324 849.742,-324 832.407,-313.456 832.407,-298.544 849.742,-288 874.258,-288 891.593,-298.544"/>
<text text-anchor="middle" x="862" y="-302.3" font-family="Times,serif" font-size="14.00">True</text>
</g>
<!-- CheckMessage&#45;&gt;_condition_hello_1_cond -->
<g id="edge3" class="edge"><title>CheckMessage&#45;&gt;_condition_hello_1_cond</title>
<path fill="none" stroke="black" d="M862,-359.697C862,-351.983 862,-342.712 862,-334.112"/>
<polygon fill="black" stroke="black" points="865.5,-334.104 862,-324.104 858.5,-334.104 865.5,-334.104"/>
</g>
<!-- MessageLength -->
<g id="node5" class="node"><title>MessageLength</title>
<ellipse fill="#66cfa7" stroke="black" cx="862" cy="-234" rx="66.8882" ry="18"/>
<text text-anchor="middle" x="862" y="-230.3" font-family="Times,serif" font-size="14.00">MessageLength</text>
</g>
<!-- _condition_hello_1_cond&#45;&gt;MessageLength -->
<g id="edge5" class="edge"><title>_condition_hello_1_cond&#45;&gt;MessageLength</title>
<path fill="none" stroke="black" d="M862,-287.697C862,-279.983 862,-270.712 862,-262.112"/>
<polygon fill="black" stroke="black" points="865.5,-262.104 862,-252.104 858.5,-262.104 865.5,-262.104"/>
</g>
<!-- MessageLength&#45;&gt;Redis -->
<g id="edge4" class="edge"><title>MessageLength&#45;&gt;Redis</title>
<path fill="none" stroke="#894830" stroke-dasharray="5,2" d="M794.94,-233.394C611.23,-233.816 109.972,-230.301 57,-180 20.9624,-145.78 25.5983,-82.1733 31.9444,-45.9969"/>
<polygon fill="#894830" stroke="#894830" points="35.3885,-46.6207 33.8362,-36.1402 28.5139,-45.3012 35.3885,-46.6207"/>
</g>
<!-- _condition_hello_2_cond -->
<g id="node6" class="node"><title>_condition_hello_2_cond</title>
<polygon fill="#e8e3c8" stroke="gray" points="1658.21,-154.544 1658.21,-169.456 1191.8,-180 532.2,-180 65.7929,-169.456 65.7929,-154.544 532.2,-144 1191.8,-144 1658.21,-154.544"/>
<text text-anchor="middle" x="862" y="-158.3" font-family="Times,serif" font-size="14.00">(fieldEqual(db.get(&#39;MessageLength&#39;), key=&#39;status&#39;, value=True) and fieldEqual(db.get(&#39;MessageLength&#39;), key=&#39;checkvalue&#39;, value=True) and fieldEqual(db.get(&#39;MessageLength&#39;), key=&#39;length&#39;, value=True))</text>
</g>
<!-- MessageLength&#45;&gt;_condition_hello_2_cond -->
<g id="edge6" class="edge"><title>MessageLength&#45;&gt;_condition_hello_2_cond</title>
<path fill="none" stroke="black" d="M862,-215.697C862,-207.983 862,-198.712 862,-190.112"/>
<polygon fill="black" stroke="black" points="865.5,-190.104 862,-180.104 858.5,-190.104 865.5,-190.104"/>
</g>
<!-- _condition_hello_3_cond -->
<g id="node8" class="node"><title>_condition_hello_3_cond</title>
<polygon fill="#e8e3c8" stroke="gray" points="2181.61,-154.544 2181.61,-169.456 2033.63,-180 1824.37,-180 1676.39,-169.456 1676.39,-154.544 1824.37,-144 2033.63,-144 2181.61,-154.544"/>
<text text-anchor="middle" x="1929" y="-158.3" font-family="Times,serif" font-size="14.00">fieldEqual(db.get(&#39;MessageLength&#39;), key=&#39;status&#39;, value=False)</text>
</g>
<!-- MessageLength&#45;&gt;_condition_hello_3_cond -->
<g id="edge9" class="edge"><title>MessageLength&#45;&gt;_condition_hello_3_cond</title>
<path fill="none" stroke="black" d="M926.343,-228.779C1084.33,-218.414 1496.18,-191.395 1740.08,-175.394"/>
<polygon fill="black" stroke="black" points="1740.38,-178.882 1750.13,-174.735 1739.92,-171.897 1740.38,-178.882"/>
</g>
<!-- SuccessAction -->
<g id="node7" class="node"><title>SuccessAction</title>
<ellipse fill="#66cfa7" stroke="black" cx="495" cy="-90" rx="62.2891" ry="18"/>
<text text-anchor="middle" x="495" y="-86.3" font-family="Times,serif" font-size="14.00">SuccessAction</text>
</g>
<!-- _condition_hello_2_cond&#45;&gt;SuccessAction -->
<g id="edge8" class="edge"><title>_condition_hello_2_cond&#45;&gt;SuccessAction</title>
<path fill="none" stroke="black" d="M772.691,-143.966C705.299,-131.112 614.653,-113.822 555.54,-102.547"/>
<polygon fill="black" stroke="black" points="556.087,-99.0885 545.608,-100.653 554.776,-105.965 556.087,-99.0885"/>
</g>
<!-- SuccessAction&#45;&gt;Redis -->
<g id="edge7" class="edge"><title>SuccessAction&#45;&gt;Redis</title>
<path fill="none" stroke="#894830" stroke-dasharray="5,2" d="M441.232,-80.7643C347.409,-66.3931 156.096,-37.0892 75.3184,-24.7162"/>
<polygon fill="#894830" stroke="#894830" points="75.54,-21.2094 65.1254,-23.1549 74.4801,-28.1287 75.54,-21.2094"/>
</g>
<!-- _condition_hello_3_cond&#45;&gt;CheckMessage -->
<g id="edge10" class="edge"><title>_condition_hello_3_cond&#45;&gt;CheckMessage</title>
<path fill="none" stroke="black" d="M1843.9,-180.068C1635.35,-221.896 1102.7,-328.724 922.579,-364.85"/>
<polygon fill="black" stroke="black" points="921.862,-361.424 912.746,-366.822 923.239,-368.287 921.862,-361.424"/>
</g>
</g>
</svg>
