<?xml version="1.0" encoding="UTF-8" standalone="no"?>
<!DOCTYPE svg PUBLIC "-//W3C//DTD SVG 1.1//EN"
 "http://www.w3.org/Graphics/SVG/1.1/DTD/svg11.dtd">
<!-- Generated by graphviz version 2.38.0 (20140413.2041)
 -->
<!-- Title: %3 Pages: 1 -->
<svg width="179pt" height="332pt"
 viewBox="0.00 0.00 178.94 332.00" xmlns="http://www.w3.org/2000/svg" xmlns:xlink="http://www.w3.org/1999/xlink">
<g id="graph0" class="graph" transform="scale(1 1) rotate(0) translate(4 328)">
<title>%3</title>
<polygon fill="white" stroke="none" points="-4,4 -4,-328 174.939,-328 174.939,4 -4,4"/>
<!-- _condition_hello_0_cond -->
<g id="node1" class="node"><title>_condition_hello_0_cond</title>
<polygon fill="#e8e3c8" stroke="gray" points="77.0392,-298.544 77.0392,-313.456 59.7038,-324 35.1878,-324 17.8523,-313.456 17.8523,-298.544 35.1878,-288 59.7038,-288 77.0392,-298.544"/>
<text text-anchor="middle" x="47.4458" y="-302.3" font-family="Times,serif" font-size="14.00">True</text>
</g>
<!-- HelloTask -->
<g id="node2" class="node"><title>HelloTask</title>
<ellipse fill="#66cfa7" stroke="black" cx="47.4458" cy="-234" rx="47.3916" ry="18"/>
<text text-anchor="middle" x="47.4458" y="-230.3" font-family="Times,serif" font-size="14.00">HelloTask</text>
</g>
<!-- _condition_hello_0_cond&#45;&gt;HelloTask -->
<g id="edge2" class="edge"><title>_condition_hello_0_cond&#45;&gt;HelloTask</title>
<path fill="none" stroke="black" d="M47.4458,-287.697C47.4458,-279.983 47.4458,-270.712 47.4458,-262.112"/>
<polygon fill="black" stroke="black" points="50.9459,-262.104 47.4458,-252.104 43.9459,-262.104 50.9459,-262.104"/>
</g>
<!-- Redis -->
<g id="node3" class="node"><title>Redis</title>
<polygon fill="#894830" stroke="black" points="76.4458,-36 22.4458,-36 22.4458,-0 76.4458,-0 76.4458,-36"/>
<text text-anchor="middle" x="49.4458" y="-14.3" font-family="Times,serif" font-size="14.00">Redis</text>
</g>
<!-- HelloTask&#45;&gt;Redis -->
<g id="edge1" class="edge"><title>HelloTask&#45;&gt;Redis</title>
<path fill="none" stroke="#894830" stroke-dasharray="5,2" d="M37.7541,-215.918C32.5235,-205.807 26.5235,-192.557 23.4458,-180 12.0118,-133.348 7.21186,-118.449 19.4458,-72 21.9376,-62.5392 26.5475,-52.9933 31.4187,-44.6599"/>
<polygon fill="#894830" stroke="#894830" points="34.4006,-46.4926 36.7193,-36.1546 28.4598,-42.7903 34.4006,-46.4926"/>
</g>
<!-- _condition_hello_1_cond -->
<g id="node4" class="node"><title>_condition_hello_1_cond</title>
<polygon fill="#e8e3c8" stroke="gray" points="158.168,-154.544 158.168,-169.456 121.426,-180 69.4655,-180 32.7239,-169.456 32.7239,-154.544 69.4655,-144 121.426,-144 158.168,-154.544"/>
<text text-anchor="middle" x="95.4458" y="-158.3" font-family="Times,serif" font-size="14.00">alwaysTrue()</text>
</g>
<!-- HelloTask&#45;&gt;_condition_hello_1_cond -->
<g id="edge3" class="edge"><title>HelloTask&#45;&gt;_condition_hello_1_cond</title>
<path fill="none" stroke="black" d="M58.8211,-216.411C64.4515,-208.2 71.3778,-198.099 77.6861,-188.9"/>
<polygon fill="black" stroke="black" points="80.7135,-190.673 83.4823,-180.447 74.9404,-186.715 80.7135,-190.673"/>
</g>
<!-- ValidateMessage -->
<g id="node5" class="node"><title>ValidateMessage</title>
<ellipse fill="#66cfa7" stroke="black" cx="99.4458" cy="-90" rx="71.4873" ry="18"/>
<text text-anchor="middle" x="99.4458" y="-86.3" font-family="Times,serif" font-size="14.00">ValidateMessage</text>
</g>
<!-- _condition_hello_1_cond&#45;&gt;ValidateMessage -->
<g id="edge5" class="edge"><title>_condition_hello_1_cond&#45;&gt;ValidateMessage</title>
<path fill="none" stroke="black" d="M96.4346,-143.697C96.8753,-135.983 97.4051,-126.712 97.8965,-118.112"/>
<polygon fill="black" stroke="black" points="101.392,-118.288 98.4684,-108.104 94.4035,-117.888 101.392,-118.288"/>
</g>
<!-- ValidateMessage&#45;&gt;Redis -->
<g id="edge4" class="edge"><title>ValidateMessage&#45;&gt;Redis</title>
<path fill="none" stroke="#894830" stroke-dasharray="5,2" d="M87.3422,-72.055C81.4724,-63.8373 74.2966,-53.7911 67.7743,-44.6599"/>
<polygon fill="#894830" stroke="#894830" points="70.4458,-42.3783 61.7853,-36.2753 64.7496,-46.447 70.4458,-42.3783"/>
</g>
</g>
</svg>
