<?xml version="1.0" encoding="UTF-8" standalone="no"?>
<!DOCTYPE svg PUBLIC "-//W3C//DTD SVG 1.1//EN"
 "http://www.w3.org/Graphics/SVG/1.1/DTD/svg11.dtd">
<!-- Generated by graphviz version 2.38.0 (20140413.2041)
 -->
<!-- Title: %3 Pages: 1 -->
<svg width="254pt" height="332pt"
 viewBox="0.00 0.00 254.07 332.00" xmlns="http://www.w3.org/2000/svg" xmlns:xlink="http://www.w3.org/1999/xlink">
<g id="graph0" class="graph" transform="scale(1 1) rotate(0) translate(4 328)">
<title>%3</title>
<polygon fill="white" stroke="none" points="-4,4 -4,-328 250.066,-328 250.066,4 -4,4"/>
<!-- _condition_hello_0_cond -->
<g id="node1" class="node"><title>_condition_hello_0_cond</title>
<polygon fill="#e8e3c8" stroke="gray" points="88.287,-298.544 88.287,-313.456 70.9515,-324 46.4355,-324 29.1001,-313.456 29.1001,-298.544 46.4355,-288 70.9515,-288 88.287,-298.544"/>
<text text-anchor="middle" x="58.6935" y="-302.3" font-family="Times,serif" font-size="14.00">True</text>
</g>
<!-- HelloTask -->
<g id="node2" class="node"><title>HelloTask</title>
<ellipse fill="#66cfa7" stroke="black" cx="58.6935" cy="-234" rx="47.3916" ry="18"/>
<text text-anchor="middle" x="58.6935" y="-230.3" font-family="Times,serif" font-size="14.00">HelloTask</text>
</g>
<!-- _condition_hello_0_cond&#45;&gt;HelloTask -->
<g id="edge2" class="edge"><title>_condition_hello_0_cond&#45;&gt;HelloTask</title>
<path fill="none" stroke="black" d="M58.6935,-287.697C58.6935,-279.983 58.6935,-270.712 58.6935,-262.112"/>
<polygon fill="black" stroke="black" points="62.1936,-262.104 58.6935,-252.104 55.1936,-262.104 62.1936,-262.104"/>
</g>
<!-- Redis -->
<g id="node3" class="node"><title>Redis</title>
<polygon fill="#894830" stroke="black" points="74.6935,-36 20.6935,-36 20.6935,-0 74.6935,-0 74.6935,-36"/>
<text text-anchor="middle" x="47.6935" y="-14.3" font-family="Times,serif" font-size="14.00">Redis</text>
</g>
<!-- HelloTask&#45;&gt;Redis -->
<g id="edge1" class="edge"><title>HelloTask&#45;&gt;Redis</title>
<path fill="none" stroke="#894830" stroke-dasharray="5,2" d="M37.1063,-217.734C25.7324,-208.317 12.8863,-195.154 6.69351,-180 -11.9761,-134.314 12.6286,-77.7731 30.9995,-45.2988"/>
<polygon fill="#894830" stroke="#894830" points="34.1677,-46.8152 36.21,-36.419 28.1304,-43.2725 34.1677,-46.8152"/>
</g>
<!-- _condition_hello_1_cond -->
<g id="node4" class="node"><title>_condition_hello_1_cond</title>
<polygon fill="#e8e3c8" stroke="gray" points="245.939,-154.544 245.939,-169.456 178.43,-180 82.9572,-180 15.4478,-169.456 15.4478,-154.544 82.9572,-144 178.43,-144 245.939,-154.544"/>
<text text-anchor="middle" x="130.694" y="-158.3" font-family="Times,serif" font-size="14.00">isBool(db.get(&#39;HelloTask&#39;))</text>
</g>
<!-- HelloTask&#45;&gt;_condition_hello_1_cond -->
<g id="edge3" class="edge"><title>HelloTask&#45;&gt;_condition_hello_1_cond</title>
<path fill="none" stroke="black" d="M75.3927,-216.765C84.397,-208.011 95.6883,-197.033 105.717,-187.283"/>
<polygon fill="black" stroke="black" points="108.35,-189.604 113.08,-180.124 103.471,-184.585 108.35,-189.604"/>
</g>
<!-- ValidateMessage -->
<g id="node5" class="node"><title>ValidateMessage</title>
<ellipse fill="#66cfa7" stroke="black" cx="108.694" cy="-90" rx="71.4873" ry="18"/>
<text text-anchor="middle" x="108.694" y="-86.3" font-family="Times,serif" font-size="14.00">ValidateMessage</text>
</g>
<!-- _condition_hello_1_cond&#45;&gt;ValidateMessage -->
<g id="edge5" class="edge"><title>_condition_hello_1_cond&#45;&gt;ValidateMessage</title>
<path fill="none" stroke="black" d="M125.255,-143.697C122.804,-135.898 119.853,-126.509 117.126,-117.829"/>
<polygon fill="black" stroke="black" points="120.406,-116.595 114.069,-108.104 113.729,-118.694 120.406,-116.595"/>
</g>
<!-- ValidateMessage&#45;&gt;Redis -->
<g id="edge4" class="edge"><title>ValidateMessage&#45;&gt;Redis</title>
<path fill="none" stroke="#894830" stroke-dasharray="5,2" d="M93.9271,-72.055C86.5446,-63.5832 77.4684,-53.1679 69.3184,-43.8154"/>
<polygon fill="#894830" stroke="#894830" points="71.9562,-41.515 62.7477,-36.2753 66.6788,-46.1139 71.9562,-41.515"/>
</g>
</g>
</svg>
