<?xml version="1.0" encoding="UTF-8" standalone="no"?>
<!DOCTYPE svg PUBLIC "-//W3C//DTD SVG 1.1//EN"
 "http://www.w3.org/Graphics/SVG/1.1/DTD/svg11.dtd">
<!-- Generated by graphviz version 2.38.0 (20140413.2041)
 -->
<!-- Title: %3 Pages: 1 -->
<svg width="223pt" height="404pt"
 viewBox="0.00 0.00 222.55 404.00" xmlns="http://www.w3.org/2000/svg" xmlns:xlink="http://www.w3.org/1999/xlink">
<g id="graph0" class="graph" transform="scale(1 1) rotate(0) translate(4 400)">
<title>%3</title>
<polygon fill="white" stroke="none" points="-4,4 -4,-400 218.547,-400 218.547,4 -4,4"/>
<!-- _condition_hello_0_cond -->
<g id="node1" class="node"><title>_condition_hello_0_cond</title>
<polygon fill="#e8e3c8" stroke="gray" points="83.5934,-370.544 83.5934,-385.456 66.258,-396 41.742,-396 24.4066,-385.456 24.4066,-370.544 41.742,-360 66.258,-360 83.5934,-370.544"/>
<text text-anchor="middle" x="54" y="-374.3" font-family="Times,serif" font-size="14.00">True</text>
</g>
<!-- HelloTask -->
<g id="node2" class="node"><title>HelloTask</title>
<ellipse fill="#66cfa7" stroke="black" cx="54" cy="-306" rx="47.3916" ry="18"/>
<text text-anchor="middle" x="54" y="-302.3" font-family="Times,serif" font-size="14.00">HelloTask</text>
</g>
<!-- _condition_hello_0_cond&#45;&gt;HelloTask -->
<g id="edge2" class="edge"><title>_condition_hello_0_cond&#45;&gt;HelloTask</title>
<path fill="none" stroke="black" d="M54,-359.697C54,-351.983 54,-342.712 54,-334.112"/>
<polygon fill="black" stroke="black" points="57.5001,-334.104 54,-324.104 50.5001,-334.104 57.5001,-334.104"/>
</g>
<!-- Redis -->
<g id="node3" class="node"><title>Redis</title>
<polygon fill="#894830" stroke="black" points="54,-108 0,-108 0,-72 54,-72 54,-108"/>
<text text-anchor="middle" x="27" y="-86.3" font-family="Times,serif" font-size="14.00">Redis</text>
</g>
<!-- HelloTask&#45;&gt;Redis -->
<g id="edge1" class="edge"><title>HelloTask&#45;&gt;Redis</title>
<path fill="none" stroke="#894830" stroke-dasharray="5,2" d="M50.7763,-287.671C46.401,-263.595 38.6017,-218.627 34,-180 31.5403,-159.353 29.7362,-135.904 28.5761,-118.261"/>
<polygon fill="#894830" stroke="#894830" points="32.0581,-117.862 27.9369,-108.102 25.0719,-118.302 32.0581,-117.862"/>
</g>
<!-- _condition_hello_1_cond -->
<g id="node4" class="node"><title>_condition_hello_1_cond</title>
<polygon fill="#e8e3c8" stroke="gray" points="122.593,-226.544 122.593,-241.456 105.258,-252 80.742,-252 63.4066,-241.456 63.4066,-226.544 80.742,-216 105.258,-216 122.593,-226.544"/>
<text text-anchor="middle" x="93" y="-230.3" font-family="Times,serif" font-size="14.00">True</text>
</g>
<!-- HelloTask&#45;&gt;_condition_hello_1_cond -->
<g id="edge3" class="edge"><title>HelloTask&#45;&gt;_condition_hello_1_cond</title>
<path fill="none" stroke="black" d="M63.4408,-288.055C67.9248,-280.007 73.386,-270.205 78.3884,-261.226"/>
<polygon fill="black" stroke="black" points="81.5656,-262.714 83.3752,-252.275 75.4506,-259.308 81.5656,-262.714"/>
</g>
<!-- ValidateMessage -->
<g id="node5" class="node"><title>ValidateMessage</title>
<ellipse fill="#66cfa7" stroke="black" cx="114" cy="-162" rx="71.4873" ry="18"/>
<text text-anchor="middle" x="114" y="-158.3" font-family="Times,serif" font-size="14.00">ValidateMessage</text>
</g>
<!-- _condition_hello_1_cond&#45;&gt;ValidateMessage -->
<g id="edge5" class="edge"><title>_condition_hello_1_cond&#45;&gt;ValidateMessage</title>
<path fill="none" stroke="black" d="M98.191,-215.697C100.531,-207.898 103.347,-198.509 105.951,-189.829"/>
<polygon fill="black" stroke="black" points="109.348,-190.688 108.869,-180.104 102.643,-188.677 109.348,-190.688"/>
</g>
<!-- ValidateMessage&#45;&gt;Redis -->
<g id="edge4" class="edge"><title>ValidateMessage&#45;&gt;Redis</title>
<path fill="none" stroke="#894830" stroke-dasharray="5,2" d="M93.3822,-144.411C82.359,-135.542 68.5953,-124.467 56.4631,-114.706"/>
<polygon fill="#894830" stroke="#894830" points="58.3636,-111.743 48.3783,-108.201 53.9755,-117.197 58.3636,-111.743"/>
</g>
<!-- _condition_hello_2_cond -->
<g id="node6" class="node"><title>_condition_hello_2_cond</title>
<polygon fill="#e8e3c8" stroke="gray" points="137.593,-82.5442 137.593,-97.4558 120.258,-108 95.742,-108 78.4066,-97.4558 78.4066,-82.5442 95.742,-72 120.258,-72 137.593,-82.5442"/>
<text text-anchor="middle" x="108" y="-86.3" font-family="Times,serif" font-size="14.00">True</text>
</g>
<!-- ValidateMessage&#45;&gt;_condition_hello_2_cond -->
<g id="edge6" class="edge"><title>ValidateMessage&#45;&gt;_condition_hello_2_cond</title>
<path fill="none" stroke="black" d="M112.517,-143.697C111.856,-135.983 111.061,-126.712 110.324,-118.112"/>
<polygon fill="black" stroke="black" points="113.807,-117.769 109.466,-108.104 106.833,-118.367 113.807,-117.769"/>
</g>
<!-- hello0 -->
<g id="node8" class="node"><title>hello0</title>
<polygon fill="#e8e3c8" stroke="gray" points="214.593,-82.5442 214.593,-97.4558 197.258,-108 172.742,-108 155.407,-97.4558 155.407,-82.5442 172.742,-72 197.258,-72 214.593,-82.5442"/>
<text text-anchor="middle" x="185" y="-86.3" font-family="Times,serif" font-size="14.00">True</text>
</g>
<!-- ValidateMessage&#45;&gt;hello0 -->
<g id="edge8" class="edge"><title>ValidateMessage&#45;&gt;hello0</title>
<path fill="none" stroke="#cc1010" d="M130.826,-144.411C140.106,-135.261 151.767,-123.765 161.891,-113.784"/>
<polygon fill="#cc1010" stroke="#cc1010" points="164.604,-116.024 169.268,-106.511 159.689,-111.039 164.604,-116.024"/>
</g>
<!-- CleanData -->
<g id="node7" class="node"><title>CleanData</title>
<ellipse fill="#66cfa7" stroke="black" cx="146" cy="-18" rx="48.1917" ry="18"/>
<text text-anchor="middle" x="146" y="-14.3" font-family="Times,serif" font-size="14.00">CleanData</text>
</g>
<!-- _condition_hello_2_cond&#45;&gt;CleanData -->
<g id="edge7" class="edge"><title>_condition_hello_2_cond&#45;&gt;CleanData</title>
<path fill="none" stroke="black" d="M117.393,-71.6966C121.765,-63.6436 127.057,-53.8945 131.895,-44.9824"/>
<polygon fill="black" stroke="black" points="135.02,-46.5627 136.715,-36.1043 128.868,-43.223 135.02,-46.5627"/>
</g>
<!-- hello0&#45;&gt;CleanData -->
<g id="edge9" class="edge"><title>hello0&#45;&gt;CleanData</title>
<path fill="none" stroke="#cc1010" d="M175.36,-71.6966C170.873,-63.6436 165.441,-53.8945 160.476,-44.9824"/>
<polygon fill="#cc1010" stroke="#cc1010" points="163.454,-43.1366 155.53,-36.1043 157.339,-46.5435 163.454,-43.1366"/>
</g>
</g>
</svg>
