<?xml version="1.0" encoding="UTF-8" standalone="no"?>
<!DOCTYPE svg PUBLIC "-//W3C//DTD SVG 1.1//EN"
 "http://www.w3.org/Graphics/SVG/1.1/DTD/svg11.dtd">
<!-- Generated by graphviz version 2.38.0 (20140413.2041)
 -->
<!-- Title: %3 Pages: 1 -->
<svg width="1117pt" height="476pt"
 viewBox="0.00 0.00 1116.71 476.00" xmlns="http://www.w3.org/2000/svg" xmlns:xlink="http://www.w3.org/1999/xlink">
<g id="graph0" class="graph" transform="scale(1 1) rotate(0) translate(4 472)">
<title>%3</title>
<polygon fill="white" stroke="none" points="-4,4 -4,-472 1112.71,-472 1112.71,4 -4,4"/>
<!-- _condition_hello_0_cond -->
<g id="node1" class="node"><title>_condition_hello_0_cond</title>
<polygon fill="#e8e3c8" stroke="gray" points="93.9377,-442.544 93.9377,-457.456 76.6023,-468 52.0863,-468 34.7508,-457.456 34.7508,-442.544 52.0863,-432 76.6023,-432 93.9377,-442.544"/>
<text text-anchor="middle" x="64.3443" y="-446.3" font-family="Times,serif" font-size="14.00">True</text>
</g>
<!-- CheckMessage -->
<g id="node2" class="node"><title>CheckMessage</title>
<ellipse fill="#66cfa7" stroke="black" cx="64.3443" cy="-378" rx="64.189" ry="18"/>
<text text-anchor="middle" x="64.3443" y="-374.3" font-family="Times,serif" font-size="14.00">CheckMessage</text>
</g>
<!-- _condition_hello_0_cond&#45;&gt;CheckMessage -->
<g id="edge2" class="edge"><title>_condition_hello_0_cond&#45;&gt;CheckMessage</title>
<path fill="none" stroke="black" d="M64.3443,-431.697C64.3443,-423.983 64.3443,-414.712 64.3443,-406.112"/>
<polygon fill="black" stroke="black" points="67.8444,-406.104 64.3443,-396.104 60.8444,-406.104 67.8444,-406.104"/>
</g>
<!-- Redis -->
<g id="node3" class="node"><title>Redis</title>
<polygon fill="#894830" stroke="black" points="181.344,-36 127.344,-36 127.344,-0 181.344,-0 181.344,-36"/>
<text text-anchor="middle" x="154.344" y="-14.3" font-family="Times,serif" font-size="14.00">Redis</text>
</g>
<!-- CheckMessage&#45;&gt;Redis -->
<g id="edge1" class="edge"><title>CheckMessage&#45;&gt;Redis</title>
<path fill="none" stroke="#894830" stroke-dasharray="5,2" d="M56.6544,-359.907C45.5507,-333.623 26.3443,-281.447 26.3443,-235 26.3443,-235 26.3443,-235 26.3443,-161 26.3443,-105.692 80.5808,-62.2195 118.444,-38.6097"/>
<polygon fill="#894830" stroke="#894830" points="120.451,-41.4865 127.199,-33.3184 116.83,-35.4958 120.451,-41.4865"/>
</g>
<!-- _condition_hello_1_cond -->
<g id="node4" class="node"><title>_condition_hello_1_cond</title>
<polygon fill="#e8e3c8" stroke="gray" points="131.938,-298.544 131.938,-313.456 114.602,-324 90.0863,-324 72.7508,-313.456 72.7508,-298.544 90.0863,-288 114.602,-288 131.938,-298.544"/>
<text text-anchor="middle" x="102.344" y="-302.3" font-family="Times,serif" font-size="14.00">True</text>
</g>
<!-- CheckMessage&#45;&gt;_condition_hello_1_cond -->
<g id="edge3" class="edge"><title>CheckMessage&#45;&gt;_condition_hello_1_cond</title>
<path fill="none" stroke="black" d="M73.543,-360.055C77.9121,-352.007 83.2332,-342.205 88.1074,-333.226"/>
<polygon fill="black" stroke="black" points="91.2713,-334.734 92.9663,-324.275 85.1193,-331.394 91.2713,-334.734"/>
</g>
<!-- MessageLength -->
<g id="node5" class="node"><title>MessageLength</title>
<ellipse fill="#66cfa7" stroke="black" cx="228.344" cy="-234" rx="66.8882" ry="18"/>
<text text-anchor="middle" x="228.344" y="-230.3" font-family="Times,serif" font-size="14.00">MessageLength</text>
</g>
<!-- _condition_hello_1_cond&#45;&gt;MessageLength -->
<g id="edge5" class="edge"><title>_condition_hello_1_cond&#45;&gt;MessageLength</title>
<path fill="none" stroke="black" d="M123.434,-293.284C142.029,-282.953 169.539,-267.669 191.724,-255.345"/>
<polygon fill="black" stroke="black" points="193.511,-258.356 200.553,-250.44 190.112,-252.237 193.511,-258.356"/>
</g>
<!-- MessageLength&#45;&gt;Redis -->
<g id="edge4" class="edge"><title>MessageLength&#45;&gt;Redis</title>
<path fill="none" stroke="#894830" stroke-dasharray="5,2" d="M166.895,-226.826C136.446,-220.308 102.235,-207.018 83.3443,-180 52.5534,-135.962 97.5955,-76.4316 128.797,-43.4892"/>
<polygon fill="#894830" stroke="#894830" points="131.522,-45.708 135.988,-36.1007 126.505,-40.8257 131.522,-45.708"/>
</g>
<!-- _condition_hello_2_cond -->
<g id="node6" class="node"><title>_condition_hello_2_cond</title>
<polygon fill="#e8e3c8" stroke="gray" points="580.568,-154.544 580.568,-169.456 437.505,-180 235.183,-180 92.1204,-169.456 92.1204,-154.544 235.183,-144 437.505,-144 580.568,-154.544"/>
<text text-anchor="middle" x="336.344" y="-158.3" font-family="Times,serif" font-size="14.00">fieldLess(db.get(&#39;MessageLength&#39;), key=&#39;length&#39;, value=100)</text>
</g>
<!-- MessageLength&#45;&gt;_condition_hello_2_cond -->
<g id="edge6" class="edge"><title>MessageLength&#45;&gt;_condition_hello_2_cond</title>
<path fill="none" stroke="black" d="M252.851,-217.116C267.239,-207.79 285.657,-195.853 301.532,-185.564"/>
<polygon fill="black" stroke="black" points="303.56,-188.42 310.048,-180.044 299.752,-182.546 303.56,-188.42"/>
</g>
<!-- _condition_hello_3_cond -->
<g id="node8" class="node"><title>_condition_hello_3_cond</title>
<polygon fill="#e8e3c8" stroke="gray" points="1108.58,-154.544 1108.58,-169.456 959.066,-180 747.622,-180 598.109,-169.456 598.109,-154.544 747.622,-144 959.066,-144 1108.58,-154.544"/>
<text text-anchor="middle" x="853.344" y="-158.3" font-family="Times,serif" font-size="14.00">fieldGreater(db.get(&#39;MessageLength&#39;), key=&#39;length&#39;, value=100)</text>
</g>
<!-- MessageLength&#45;&gt;_condition_hello_3_cond -->
<g id="edge9" class="edge"><title>MessageLength&#45;&gt;_condition_hello_3_cond</title>
<path fill="none" stroke="black" d="M288.84,-226.225C385.129,-215.44 575.936,-194.07 708.926,-179.175"/>
<polygon fill="black" stroke="black" points="709.651,-182.616 719.199,-178.024 708.872,-175.659 709.651,-182.616"/>
</g>
<!-- SuccessAction -->
<g id="node7" class="node"><title>SuccessAction</title>
<ellipse fill="#66cfa7" stroke="black" cx="245.344" cy="-90" rx="62.2891" ry="18"/>
<text text-anchor="middle" x="245.344" y="-86.3" font-family="Times,serif" font-size="14.00">SuccessAction</text>
</g>
<!-- _condition_hello_2_cond&#45;&gt;SuccessAction -->
<g id="edge8" class="edge"><title>_condition_hello_2_cond&#45;&gt;SuccessAction</title>
<path fill="none" stroke="black" d="M313.85,-143.697C301.934,-134.53 287.16,-123.166 274.387,-113.341"/>
<polygon fill="black" stroke="black" points="276.392,-110.468 266.332,-107.145 272.124,-116.016 276.392,-110.468"/>
</g>
<!-- SuccessAction&#45;&gt;Redis -->
<g id="edge7" class="edge"><title>SuccessAction&#45;&gt;Redis</title>
<path fill="none" stroke="#894830" stroke-dasharray="5,2" d="M224.238,-72.7646C212.523,-63.7531 197.745,-52.3852 184.798,-42.4261"/>
<polygon fill="#894830" stroke="#894830" points="186.666,-39.4469 176.605,-36.1239 182.398,-44.9953 186.666,-39.4469"/>
</g>
<!-- FailureAction -->
<g id="node9" class="node"><title>FailureAction</title>
<ellipse fill="#66cfa7" stroke="black" cx="619.344" cy="-90" rx="59.5901" ry="18"/>
<text text-anchor="middle" x="619.344" y="-86.3" font-family="Times,serif" font-size="14.00">FailureAction</text>
</g>
<!-- _condition_hello_3_cond&#45;&gt;FailureAction -->
<g id="edge11" class="edge"><title>_condition_hello_3_cond&#45;&gt;FailureAction</title>
<path fill="none" stroke="black" d="M796.401,-143.966C757.779,-132.412 707.179,-117.275 669.967,-106.143"/>
<polygon fill="black" stroke="black" points="670.913,-102.773 660.329,-103.26 668.907,-109.48 670.913,-102.773"/>
</g>
<!-- FailureAction&#45;&gt;Redis -->
<g id="edge10" class="edge"><title>FailureAction&#45;&gt;Redis</title>
<path fill="none" stroke="#894830" stroke-dasharray="5,2" d="M566.907,-81.1062C471.924,-66.8077 273.636,-36.9578 191.358,-24.5719"/>
<polygon fill="#894830" stroke="#894830" points="191.864,-21.1088 181.454,-23.0811 190.822,-28.0308 191.864,-21.1088"/>
</g>
</g>
</svg>
