<?xml version="1.0" encoding="UTF-8" standalone="no"?>
<!DOCTYPE svg PUBLIC "-//W3C//DTD SVG 1.1//EN"
 "http://www.w3.org/Graphics/SVG/1.1/DTD/svg11.dtd">
<!-- Generated by graphviz version 2.38.0 (20140413.2041)
 -->
<!-- Title: %3 Pages: 1 -->
<svg width="756pt" height="332pt"
 viewBox="0.00 0.00 756.04 332.00" xmlns="http://www.w3.org/2000/svg" xmlns:xlink="http://www.w3.org/1999/xlink">
<g id="graph0" class="graph" transform="scale(1 1) rotate(0) translate(4 328)">
<title>%3</title>
<polygon fill="white" stroke="none" points="-4,4 -4,-328 752.036,-328 752.036,4 -4,4"/>
<!-- _condition_hello_0_cond -->
<g id="node1" class="node"><title>_condition_hello_0_cond</title>
<polygon fill="#e8e3c8" stroke="gray" points="217.22,-298.544 217.22,-313.456 199.885,-324 175.369,-324 158.034,-313.456 158.034,-298.544 175.369,-288 199.885,-288 217.22,-298.544"/>
<text text-anchor="middle" x="187.627" y="-302.3" font-family="Times,serif" font-size="14.00">True</text>
</g>
<!-- HelloTask -->
<g id="node2" class="node"><title>HelloTask</title>
<ellipse fill="#66cfa7" stroke="black" cx="187.627" cy="-234" rx="47.3916" ry="18"/>
<text text-anchor="middle" x="187.627" y="-230.3" font-family="Times,serif" font-size="14.00">HelloTask</text>
</g>
<!-- _condition_hello_0_cond&#45;&gt;HelloTask -->
<g id="edge2" class="edge"><title>_condition_hello_0_cond&#45;&gt;HelloTask</title>
<path fill="none" stroke="black" d="M187.627,-287.697C187.627,-279.983 187.627,-270.712 187.627,-262.112"/>
<polygon fill="black" stroke="black" points="191.127,-262.104 187.627,-252.104 184.127,-262.104 191.127,-262.104"/>
</g>
<!-- Redis -->
<g id="node3" class="node"><title>Redis</title>
<polygon fill="#894830" stroke="black" points="140.627,-36 86.627,-36 86.627,-0 140.627,-0 140.627,-36"/>
<text text-anchor="middle" x="113.627" y="-14.3" font-family="Times,serif" font-size="14.00">Redis</text>
</g>
<!-- HelloTask&#45;&gt;Redis -->
<g id="edge1" class="edge"><title>HelloTask&#45;&gt;Redis</title>
<path fill="none" stroke="#894830" stroke-dasharray="5,2" d="M144.544,-226.103C97.493,-217.589 26.669,-201.549 10.627,-180 -24.3884,-132.964 38.021,-74.1459 80.0348,-42.2264"/>
<polygon fill="#894830" stroke="#894830" points="82.1902,-44.9853 88.1307,-36.2125 78.016,-39.366 82.1902,-44.9853"/>
</g>
<!-- _condition_hello_1_cond -->
<g id="node4" class="node"><title>_condition_hello_1_cond</title>
<polygon fill="#e8e3c8" stroke="gray" points="747.945,-154.544 747.945,-169.456 534.533,-180 232.721,-180 19.3088,-169.456 19.3088,-154.544 232.721,-144 534.533,-144 747.945,-154.544"/>
<text text-anchor="middle" x="383.627" y="-158.3" font-family="Times,serif" font-size="14.00">(fieldEqual(db.get(&#39;HelloTask&#39;), key=&#39;processed&#39;, value=&#39;yes&#39;) or envExist(env=&#39;TESTING&#39;))</text>
</g>
<!-- HelloTask&#45;&gt;_condition_hello_1_cond -->
<g id="edge3" class="edge"><title>HelloTask&#45;&gt;_condition_hello_1_cond</title>
<path fill="none" stroke="black" d="M220.876,-221.125C249.727,-210.821 292.131,-195.677 326.423,-183.43"/>
<polygon fill="black" stroke="black" points="327.622,-186.718 335.862,-180.059 325.268,-180.126 327.622,-186.718"/>
</g>
<!-- ValidateMessage -->
<g id="node5" class="node"><title>ValidateMessage</title>
<ellipse fill="#66cfa7" stroke="black" cx="236.627" cy="-90" rx="71.4873" ry="18"/>
<text text-anchor="middle" x="236.627" y="-86.3" font-family="Times,serif" font-size="14.00">ValidateMessage</text>
</g>
<!-- _condition_hello_1_cond&#45;&gt;ValidateMessage -->
<g id="edge5" class="edge"><title>_condition_hello_1_cond&#45;&gt;ValidateMessage</title>
<path fill="none" stroke="black" d="M347.667,-143.876C326.545,-133.818 299.769,-121.067 277.803,-110.607"/>
<polygon fill="black" stroke="black" points="279.247,-107.419 268.714,-106.279 276.237,-113.739 279.247,-107.419"/>
</g>
<!-- ValidateMessage&#45;&gt;Redis -->
<g id="edge4" class="edge"><title>ValidateMessage&#45;&gt;Redis</title>
<path fill="none" stroke="#894830" stroke-dasharray="5,2" d="M209.023,-73.2906C191.414,-63.2688 168.411,-50.1781 149.406,-39.3623"/>
<polygon fill="#894830" stroke="#894830" points="151.137,-36.3203 140.715,-34.4159 147.675,-42.404 151.137,-36.3203"/>
</g>
</g>
</svg>
