<?xml version="1.0" encoding="UTF-8" standalone="no"?>
<!DOCTYPE svg PUBLIC "-//W3C//DTD SVG 1.1//EN"
 "http://www.w3.org/Graphics/SVG/1.1/DTD/svg11.dtd">
<!-- Generated by graphviz version 2.38.0 (20140413.2041)
 -->
<!-- Title: %3 Pages: 1 -->
<svg width="1124pt" height="476pt"
 viewBox="0.00 0.00 1123.90 476.00" xmlns="http://www.w3.org/2000/svg" xmlns:xlink="http://www.w3.org/1999/xlink">
<g id="graph0" class="graph" transform="scale(1 1) rotate(0) translate(4 472)">
<title>%3</title>
<polygon fill="white" stroke="none" points="-4,4 -4,-472 1119.9,-472 1119.9,4 -4,4"/>
<!-- _condition_hello_0_cond -->
<g id="node1" class="node"><title>_condition_hello_0_cond</title>
<polygon fill="#e8e3c8" stroke="gray" points="93.9377,-442.544 93.9377,-457.456 76.6023,-468 52.0863,-468 34.7508,-457.456 34.7508,-442.544 52.0863,-432 76.6023,-432 93.9377,-442.544"/>
<text text-anchor="middle" x="64.3443" y="-446.3" font-family="Times,serif" font-size="14.00">True</text>
</g>
<!-- CheckMessage -->
<g id="node2" class="node"><title>CheckMessage</title>
<ellipse fill="#66cfa7" stroke="black" cx="64.3443" cy="-378" rx="64.189" ry="18"/>
<text text-anchor="middle" x="64.3443" y="-374.3" font-family="Times,serif" font-size="14.00">CheckMessage</text>
</g>
<!-- _condition_hello_0_cond&#45;&gt;CheckMessage -->
<g id="edge2" class="edge"><title>_condition_hello_0_cond&#45;&gt;CheckMessage</title>
<path fill="none" stroke="black" d="M64.3443,-431.697C64.3443,-423.983 64.3443,-414.712 64.3443,-406.112"/>
<polygon fill="black" stroke="black" points="67.8444,-406.104 64.3443,-396.104 60.8444,-406.104 67.8444,-406.104"/>
</g>
<!-- Redis -->
<g id="node3" class="node"><title>Redis</title>
<polygon fill="#894830" stroke="black" points="183.344,-36 129.344,-36 129.344,-0 183.344,-0 183.344,-36"/>
<text text-anchor="middle" x="156.344" y="-14.3" font-family="Times,serif" font-size="14.00">Redis</text>
</g>
<!-- CheckMessage&#45;&gt;Redis -->
<g id="edge1" class="edge"><title>CheckMessage&#45;&gt;Redis</title>
<path fill="none" stroke="#894830" stroke-dasharray="5,2" d="M56.6544,-359.907C45.5507,-333.623 26.3443,-281.447 26.3443,-235 26.3443,-235 26.3443,-235 26.3443,-161 26.3443,-105.148 81.7347,-61.7072 120.204,-38.2722"/>
<polygon fill="#894830" stroke="#894830" points="122.259,-41.123 129.092,-33.0256 118.701,-35.0948 122.259,-41.123"/>
</g>
<!-- _condition_hello_1_cond -->
<g id="node4" class="node"><title>_condition_hello_1_cond</title>
<polygon fill="#e8e3c8" stroke="gray" points="131.938,-298.544 131.938,-313.456 114.602,-324 90.0863,-324 72.7508,-313.456 72.7508,-298.544 90.0863,-288 114.602,-288 131.938,-298.544"/>
<text text-anchor="middle" x="102.344" y="-302.3" font-family="Times,serif" font-size="14.00">True</text>
</g>
<!-- CheckMessage&#45;&gt;_condition_hello_1_cond -->
<g id="edge3" class="edge"><title>CheckMessage&#45;&gt;_condition_hello_1_cond</title>
<path fill="none" stroke="black" d="M73.543,-360.055C77.9121,-352.007 83.2332,-342.205 88.1074,-333.226"/>
<polygon fill="black" stroke="black" points="91.2713,-334.734 92.9663,-324.275 85.1193,-331.394 91.2713,-334.734"/>
</g>
<!-- MessageLength -->
<g id="node5" class="node"><title>MessageLength</title>
<ellipse fill="#66cfa7" stroke="black" cx="231.344" cy="-234" rx="66.8882" ry="18"/>
<text text-anchor="middle" x="231.344" y="-230.3" font-family="Times,serif" font-size="14.00">MessageLength</text>
</g>
<!-- _condition_hello_1_cond&#45;&gt;MessageLength -->
<g id="edge5" class="edge"><title>_condition_hello_1_cond&#45;&gt;MessageLength</title>
<path fill="none" stroke="black" d="M123.646,-293.441C142.641,-283.134 170.886,-267.807 193.685,-255.435"/>
<polygon fill="black" stroke="black" points="195.64,-258.357 202.76,-250.511 192.301,-252.204 195.64,-258.357"/>
</g>
<!-- MessageLength&#45;&gt;Redis -->
<g id="edge4" class="edge"><title>MessageLength&#45;&gt;Redis</title>
<path fill="none" stroke="#894830" stroke-dasharray="5,2" d="M169.038,-227.252C137.875,-220.864 102.749,-207.56 83.3443,-180 52.2658,-135.859 98.3597,-76.3672 130.248,-43.459"/>
<polygon fill="#894830" stroke="#894830" points="133.021,-45.6345 137.596,-36.0785 128.06,-40.6956 133.021,-45.6345"/>
</g>
<!-- _condition_hello_2_cond -->
<g id="node6" class="node"><title>_condition_hello_2_cond</title>
<polygon fill="#e8e3c8" stroke="gray" points="592.731,-154.544 592.731,-169.456 446.058,-180 238.631,-180 91.9576,-169.456 91.9576,-154.544 238.631,-144 446.058,-144 592.731,-154.544"/>
<text text-anchor="middle" x="342.344" y="-158.3" font-family="Times,serif" font-size="14.00">fieldEqual(db.get(&#39;MessageLength&#39;), key=&#39;status&#39;, value=True)</text>
</g>
<!-- MessageLength&#45;&gt;_condition_hello_2_cond -->
<g id="edge6" class="edge"><title>MessageLength&#45;&gt;_condition_hello_2_cond</title>
<path fill="none" stroke="black" d="M256.255,-217.291C271.032,-207.972 290.017,-195.999 306.397,-185.67"/>
<polygon fill="black" stroke="black" points="308.594,-188.422 315.185,-180.127 304.86,-182.501 308.594,-188.422"/>
</g>
<!-- _condition_hello_3_cond -->
<g id="node8" class="node"><title>_condition_hello_3_cond</title>
<polygon fill="#e8e3c8" stroke="gray" points="1115.95,-154.544 1115.95,-169.456 967.978,-180 758.711,-180 610.737,-169.456 610.737,-154.544 758.711,-144 967.978,-144 1115.95,-154.544"/>
<text text-anchor="middle" x="863.344" y="-158.3" font-family="Times,serif" font-size="14.00">fieldEqual(db.get(&#39;MessageLength&#39;), key=&#39;status&#39;, value=False)</text>
</g>
<!-- MessageLength&#45;&gt;_condition_hello_3_cond -->
<g id="edge9" class="edge"><title>MessageLength&#45;&gt;_condition_hello_3_cond</title>
<path fill="none" stroke="black" d="M291.943,-226.288C389.525,-215.48 584.159,-193.922 718.97,-178.991"/>
<polygon fill="black" stroke="black" points="719.423,-182.462 728.977,-177.883 718.652,-175.505 719.423,-182.462"/>
</g>
<!-- SuccessAction -->
<g id="node7" class="node"><title>SuccessAction</title>
<ellipse fill="#66cfa7" stroke="black" cx="248.344" cy="-90" rx="62.2891" ry="18"/>
<text text-anchor="middle" x="248.344" y="-86.3" font-family="Times,serif" font-size="14.00">SuccessAction</text>
</g>
<!-- _condition_hello_2_cond&#45;&gt;SuccessAction -->
<g id="edge8" class="edge"><title>_condition_hello_2_cond&#45;&gt;SuccessAction</title>
<path fill="none" stroke="black" d="M319.108,-143.697C306.799,-134.53 291.539,-123.166 278.345,-113.341"/>
<polygon fill="black" stroke="black" points="280.135,-110.31 270.024,-107.145 275.954,-115.924 280.135,-110.31"/>
</g>
<!-- SuccessAction&#45;&gt;Redis -->
<g id="edge7" class="edge"><title>SuccessAction&#45;&gt;Redis</title>
<path fill="none" stroke="#894830" stroke-dasharray="5,2" d="M227.006,-72.7646C215.163,-63.7531 200.222,-52.3852 187.133,-42.4261"/>
<polygon fill="#894830" stroke="#894830" points="188.928,-39.3938 178.85,-36.1239 184.689,-44.9646 188.928,-39.3938"/>
</g>
<!-- FailureAction -->
<g id="node9" class="node"><title>FailureAction</title>
<ellipse fill="#66cfa7" stroke="black" cx="625.344" cy="-90" rx="59.5901" ry="18"/>
<text text-anchor="middle" x="625.344" y="-86.3" font-family="Times,serif" font-size="14.00">FailureAction</text>
</g>
<!-- _condition_hello_3_cond&#45;&gt;FailureAction -->
<g id="edge11" class="edge"><title>_condition_hello_3_cond&#45;&gt;FailureAction</title>
<path fill="none" stroke="black" d="M805.427,-143.966C766.019,-132.375 714.349,-117.178 676.467,-106.036"/>
<polygon fill="black" stroke="black" points="677.242,-102.616 666.661,-103.152 675.267,-109.331 677.242,-102.616"/>
</g>
<!-- FailureAction&#45;&gt;Redis -->
<g id="edge10" class="edge"><title>FailureAction&#45;&gt;Redis</title>
<path fill="none" stroke="#894830" stroke-dasharray="5,2" d="M572.909,-81.1739C477.207,-66.8899 276.451,-36.9263 193.464,-24.5402"/>
<polygon fill="#894830" stroke="#894830" points="193.886,-21.0646 183.479,-23.05 192.853,-27.9879 193.886,-21.0646"/>
</g>
</g>
</svg>
