<?xml version="1.0" encoding="UTF-8" standalone="no"?>
<!DOCTYPE svg PUBLIC "-//W3C//DTD SVG 1.1//EN"
 "http://www.w3.org/Graphics/SVG/1.1/DTD/svg11.dtd">
<!-- Generated by graphviz version 2.38.0 (20140413.2041)
 -->
<!-- Title: %3 Pages: 1 -->
<svg width="270pt" height="476pt"
 viewBox="0.00 0.00 270.19 476.00" xmlns="http://www.w3.org/2000/svg" xmlns:xlink="http://www.w3.org/1999/xlink">
<g id="graph0" class="graph" transform="scale(1 1) rotate(0) translate(4 472)">
<title>%3</title>
<polygon fill="white" stroke="none" points="-4,4 -4,-472 266.189,-472 266.189,4 -4,4"/>
<!-- _condition_hello_0_cond -->
<g id="node1" class="node"><title>_condition_hello_0_cond</title>
<polygon fill="#e8e3c8" stroke="gray" points="161.988,-442.544 161.988,-457.456 144.652,-468 120.136,-468 102.801,-457.456 102.801,-442.544 120.136,-432 144.652,-432 161.988,-442.544"/>
<text text-anchor="middle" x="132.394" y="-446.3" font-family="Times,serif" font-size="14.00">True</text>
</g>
<!-- CheckMessage -->
<g id="node2" class="node"><title>CheckMessage</title>
<ellipse fill="#66cfa7" stroke="black" cx="132.394" cy="-378" rx="64.189" ry="18"/>
<text text-anchor="middle" x="132.394" y="-374.3" font-family="Times,serif" font-size="14.00">CheckMessage</text>
</g>
<!-- _condition_hello_0_cond&#45;&gt;CheckMessage -->
<g id="edge1" class="edge"><title>_condition_hello_0_cond&#45;&gt;CheckMessage</title>
<path fill="none" stroke="black" d="M132.394,-431.697C132.394,-423.983 132.394,-414.712 132.394,-406.112"/>
<polygon fill="black" stroke="black" points="135.895,-406.104 132.394,-396.104 128.895,-406.104 135.895,-406.104"/>
</g>
<!-- _condition_hello_1_cond -->
<g id="node3" class="node"><title>_condition_hello_1_cond</title>
<polygon fill="#e8e3c8" stroke="gray" points="161.988,-298.544 161.988,-313.456 144.652,-324 120.136,-324 102.801,-313.456 102.801,-298.544 120.136,-288 144.652,-288 161.988,-298.544"/>
<text text-anchor="middle" x="132.394" y="-302.3" font-family="Times,serif" font-size="14.00">True</text>
</g>
<!-- CheckMessage&#45;&gt;_condition_hello_1_cond -->
<g id="edge2" class="edge"><title>CheckMessage&#45;&gt;_condition_hello_1_cond</title>
<path fill="none" stroke="black" d="M132.394,-359.697C132.394,-351.983 132.394,-342.712 132.394,-334.112"/>
<polygon fill="black" stroke="black" points="135.895,-334.104 132.394,-324.104 128.895,-334.104 135.895,-334.104"/>
</g>
<!-- MessageLength -->
<g id="node4" class="node"><title>MessageLength</title>
<ellipse fill="#66cfa7" stroke="black" cx="132.394" cy="-234" rx="66.8882" ry="18"/>
<text text-anchor="middle" x="132.394" y="-230.3" font-family="Times,serif" font-size="14.00">MessageLength</text>
</g>
<!-- _condition_hello_1_cond&#45;&gt;MessageLength -->
<g id="edge3" class="edge"><title>_condition_hello_1_cond&#45;&gt;MessageLength</title>
<path fill="none" stroke="black" d="M132.394,-287.697C132.394,-279.983 132.394,-270.712 132.394,-262.112"/>
<polygon fill="black" stroke="black" points="135.895,-262.104 132.394,-252.104 128.895,-262.104 135.895,-262.104"/>
</g>
<!-- _condition_hello_2_cond -->
<g id="node5" class="node"><title>_condition_hello_2_cond</title>
<polygon fill="#e8e3c8" stroke="gray" points="107.988,-154.544 107.988,-169.456 90.6525,-180 66.1365,-180 48.801,-169.456 48.801,-154.544 66.1365,-144 90.6525,-144 107.988,-154.544"/>
<text text-anchor="middle" x="78.3945" y="-158.3" font-family="Times,serif" font-size="14.00">True</text>
</g>
<!-- MessageLength&#45;&gt;_condition_hello_2_cond -->
<g id="edge4" class="edge"><title>MessageLength&#45;&gt;_condition_hello_2_cond</title>
<path fill="none" stroke="black" d="M119.323,-216.055C112.822,-207.629 104.839,-197.28 97.6542,-187.966"/>
<polygon fill="black" stroke="black" points="100.225,-185.569 91.346,-179.789 94.6828,-189.845 100.225,-185.569"/>
</g>
<!-- hello0 -->
<g id="node8" class="node"><title>hello0</title>
<polygon fill="#e8e3c8" stroke="gray" points="215.988,-154.544 215.988,-169.456 198.652,-180 174.136,-180 156.801,-169.456 156.801,-154.544 174.136,-144 198.652,-144 215.988,-154.544"/>
<text text-anchor="middle" x="186.394" y="-158.3" font-family="Times,serif" font-size="14.00">True</text>
</g>
<!-- MessageLength&#45;&gt;hello0 -->
<g id="edge7" class="edge"><title>MessageLength&#45;&gt;hello0</title>
<path fill="none" stroke="#cc1010" d="M145.466,-216.055C151.967,-207.629 159.95,-197.28 167.135,-187.966"/>
<polygon fill="#cc1010" stroke="#cc1010" points="170.106,-189.845 173.443,-179.789 164.564,-185.569 170.106,-189.845"/>
</g>
<!-- SuccessAction -->
<g id="node6" class="node"><title>SuccessAction</title>
<ellipse fill="#66cfa7" stroke="black" cx="62.3945" cy="-90" rx="62.2891" ry="18"/>
<text text-anchor="middle" x="62.3945" y="-86.3" font-family="Times,serif" font-size="14.00">SuccessAction</text>
</g>
<!-- _condition_hello_2_cond&#45;&gt;SuccessAction -->
<g id="edge6" class="edge"><title>_condition_hello_2_cond&#45;&gt;SuccessAction</title>
<path fill="none" stroke="black" d="M74.4394,-143.697C72.6762,-135.983 70.5573,-126.712 68.5916,-118.112"/>
<polygon fill="black" stroke="black" points="71.9444,-117.073 66.304,-108.104 65.1203,-118.633 71.9444,-117.073"/>
</g>
<!-- Redis -->
<g id="node7" class="node"><title>Redis</title>
<polygon fill="#894830" stroke="black" points="159.394,-36 105.394,-36 105.394,-0 159.394,-0 159.394,-36"/>
<text text-anchor="middle" x="132.394" y="-14.3" font-family="Times,serif" font-size="14.00">Redis</text>
</g>
<!-- SuccessAction&#45;&gt;Redis -->
<g id="edge5" class="edge"><title>SuccessAction&#45;&gt;Redis</title>
<path fill="none" stroke="#894830" stroke-dasharray="5,2" d="M78.9835,-72.411C87.5331,-63.8614 98.1316,-53.2628 107.628,-43.7663"/>
<polygon fill="#894830" stroke="#894830" points="110.351,-45.9928 114.948,-36.4468 105.402,-41.043 110.351,-45.9928"/>
</g>
<!-- FailureAction -->
<g id="node9" class="node"><title>FailureAction</title>
<ellipse fill="#66cfa7" stroke="black" cx="202.394" cy="-90" rx="59.5901" ry="18"/>
<text text-anchor="middle" x="202.394" y="-86.3" font-family="Times,serif" font-size="14.00">FailureAction</text>
</g>
<!-- hello0&#45;&gt;FailureAction -->
<g id="edge9" class="edge"><title>hello0&#45;&gt;FailureAction</title>
<path fill="none" stroke="#cc1010" d="M190.35,-143.697C192.113,-135.983 194.232,-126.712 196.197,-118.112"/>
<polygon fill="#cc1010" stroke="#cc1010" points="199.669,-118.633 198.485,-108.104 192.845,-117.073 199.669,-118.633"/>
</g>
<!-- FailureAction&#45;&gt;Redis -->
<g id="edge8" class="edge"><title>FailureAction&#45;&gt;Redis</title>
<path fill="none" stroke="#894830" stroke-dasharray="5,2" d="M185.805,-72.411C177.256,-63.8614 166.657,-53.2628 157.161,-43.7663"/>
<polygon fill="#894830" stroke="#894830" points="159.387,-41.043 149.841,-36.4468 154.437,-45.9928 159.387,-41.043"/>
</g>
</g>
</svg>
