<?xml version="1.0" encoding="UTF-8" standalone="no"?>
<!DOCTYPE svg PUBLIC "-//W3C//DTD SVG 1.1//EN"
 "http://www.w3.org/Graphics/SVG/1.1/DTD/svg11.dtd">
<!-- Generated by graphviz version 2.38.0 (20140413.2041)
 -->
<!-- Title: %3 Pages: 1 -->
<svg width="501pt" height="332pt"
 viewBox="0.00 0.00 500.60 332.00" xmlns="http://www.w3.org/2000/svg" xmlns:xlink="http://www.w3.org/1999/xlink">
<g id="graph0" class="graph" transform="scale(1 1) rotate(0) translate(4 328)">
<title>%3</title>
<polygon fill="white" stroke="none" points="-4,4 -4,-328 496.596,-328 496.596,4 -4,4"/>
<!-- _condition_hello_0_cond -->
<g id="node1" class="node"><title>_condition_hello_0_cond</title>
<polygon fill="#e8e3c8" stroke="gray" points="152.112,-298.544 152.112,-313.456 134.777,-324 110.261,-324 92.9256,-313.456 92.9256,-298.544 110.261,-288 134.777,-288 152.112,-298.544"/>
<text text-anchor="middle" x="122.519" y="-302.3" font-family="Times,serif" font-size="14.00">True</text>
</g>
<!-- HelloTask -->
<g id="node2" class="node"><title>HelloTask</title>
<ellipse fill="#66cfa7" stroke="black" cx="122.519" cy="-234" rx="47.3916" ry="18"/>
<text text-anchor="middle" x="122.519" y="-230.3" font-family="Times,serif" font-size="14.00">HelloTask</text>
</g>
<!-- _condition_hello_0_cond&#45;&gt;HelloTask -->
<g id="edge2" class="edge"><title>_condition_hello_0_cond&#45;&gt;HelloTask</title>
<path fill="none" stroke="black" d="M122.519,-287.697C122.519,-279.983 122.519,-270.712 122.519,-262.112"/>
<polygon fill="black" stroke="black" points="126.019,-262.104 122.519,-252.104 119.019,-262.104 126.019,-262.104"/>
</g>
<!-- Redis -->
<g id="node3" class="node"><title>Redis</title>
<polygon fill="#894830" stroke="black" points="108.519,-36 54.519,-36 54.519,-0 108.519,-0 108.519,-36"/>
<text text-anchor="middle" x="81.519" y="-14.3" font-family="Times,serif" font-size="14.00">Redis</text>
</g>
<!-- HelloTask&#45;&gt;Redis -->
<g id="edge1" class="edge"><title>HelloTask&#45;&gt;Redis</title>
<path fill="none" stroke="#894830" stroke-dasharray="5,2" d="M80.8825,-225.139C55.5491,-217.978 25.1509,-204.598 9.51902,-180 -19.2164,-134.783 24.9638,-76.1647 55.8098,-43.5875"/>
<polygon fill="#894830" stroke="#894830" points="58.4605,-45.8823 62.927,-36.2749 53.4441,-41 58.4605,-45.8823"/>
</g>
<!-- _condition_hello_1_cond -->
<g id="node4" class="node"><title>_condition_hello_1_cond</title>
<polygon fill="#e8e3c8" stroke="gray" points="492.673,-154.544 492.673,-169.456 353.751,-180 157.287,-180 18.365,-169.456 18.365,-154.544 157.287,-144 353.751,-144 492.673,-154.544"/>
<text text-anchor="middle" x="255.519" y="-158.3" font-family="Times,serif" font-size="14.00">(isBool(db.get(&#39;HelloTask&#39;)) or envExist(env=&#39;TESTING&#39;))</text>
</g>
<!-- HelloTask&#45;&gt;_condition_hello_1_cond -->
<g id="edge3" class="edge"><title>HelloTask&#45;&gt;_condition_hello_1_cond</title>
<path fill="none" stroke="black" d="M149.114,-219.003C167.604,-209.271 192.624,-196.102 213.758,-184.98"/>
<polygon fill="black" stroke="black" points="215.631,-187.949 222.851,-180.194 212.371,-181.754 215.631,-187.949"/>
</g>
<!-- ValidateMessage -->
<g id="node5" class="node"><title>ValidateMessage</title>
<ellipse fill="#66cfa7" stroke="black" cx="172.519" cy="-90" rx="71.4873" ry="18"/>
<text text-anchor="middle" x="172.519" y="-86.3" font-family="Times,serif" font-size="14.00">ValidateMessage</text>
</g>
<!-- _condition_hello_1_cond&#45;&gt;ValidateMessage -->
<g id="edge5" class="edge"><title>_condition_hello_1_cond&#45;&gt;ValidateMessage</title>
<path fill="none" stroke="black" d="M235.002,-143.697C224.315,-134.683 211.108,-123.545 199.594,-113.834"/>
<polygon fill="black" stroke="black" points="201.845,-111.154 191.944,-107.383 197.332,-116.505 201.845,-111.154"/>
</g>
<!-- ValidateMessage&#45;&gt;Redis -->
<g id="edge4" class="edge"><title>ValidateMessage&#45;&gt;Redis</title>
<path fill="none" stroke="#894830" stroke-dasharray="5,2" d="M151.413,-72.7646C139.698,-63.7531 124.92,-52.3852 111.973,-42.4261"/>
<polygon fill="#894830" stroke="#894830" points="113.84,-39.4469 103.78,-36.1239 109.572,-44.9953 113.84,-39.4469"/>
</g>
</g>
</svg>
