<?xml version="1.0" encoding="UTF-8" standalone="no"?>
<!DOCTYPE svg PUBLIC "-//W3C//DTD SVG 1.1//EN"
 "http://www.w3.org/Graphics/SVG/1.1/DTD/svg11.dtd">
<!-- Generated by graphviz version 2.38.0 (20140413.2041)
 -->
<!-- Title: %3 Pages: 1 -->
<svg width="1098pt" height="476pt"
 viewBox="0.00 0.00 1097.55 476.00" xmlns="http://www.w3.org/2000/svg" xmlns:xlink="http://www.w3.org/1999/xlink">
<g id="graph0" class="graph" transform="scale(1 1) rotate(0) translate(4 472)">
<title>%3</title>
<polygon fill="white" stroke="none" points="-4,4 -4,-472 1093.55,-472 1093.55,4 -4,4"/>
<!-- _condition_hello_0_cond -->
<g id="node1" class="node"><title>_condition_hello_0_cond</title>
<polygon fill="#e8e3c8" stroke="gray" points="345.593,-442.544 345.593,-457.456 328.258,-468 303.742,-468 286.407,-457.456 286.407,-442.544 303.742,-432 328.258,-432 345.593,-442.544"/>
<text text-anchor="middle" x="316" y="-446.3" font-family="Times,serif" font-size="14.00">True</text>
</g>
<!-- CheckMessage -->
<g id="node2" class="node"><title>CheckMessage</title>
<ellipse fill="#66cfa7" stroke="black" cx="316" cy="-378" rx="64.189" ry="18"/>
<text text-anchor="middle" x="316" y="-374.3" font-family="Times,serif" font-size="14.00">CheckMessage</text>
</g>
<!-- _condition_hello_0_cond&#45;&gt;CheckMessage -->
<g id="edge2" class="edge"><title>_condition_hello_0_cond&#45;&gt;CheckMessage</title>
<path fill="none" stroke="black" d="M316,-431.697C316,-423.983 316,-414.712 316,-406.112"/>
<polygon fill="black" stroke="black" points="319.5,-406.104 316,-396.104 312.5,-406.104 319.5,-406.104"/>
</g>
<!-- Redis -->
<g id="node3" class="node"><title>Redis</title>
<polygon fill="#894830" stroke="black" points="65,-36 11,-36 11,-0 65,-0 65,-36"/>
<text text-anchor="middle" x="38" y="-14.3" font-family="Times,serif" font-size="14.00">Redis</text>
</g>
<!-- CheckMessage&#45;&gt;Redis -->
<g id="edge1" class="edge"><title>CheckMessage&#45;&gt;Redis</title>
<path fill="none" stroke="#894830" stroke-dasharray="5,2" d="M252.053,-375.704C159.717,-370.056 0,-344.465 0,-235 0,-235 0,-235 0,-161 0,-119.633 15.2348,-73.7216 26.4117,-45.6051"/>
<polygon fill="#894830" stroke="#894830" points="29.7564,-46.6733 30.3101,-36.0929 23.2793,-44.0187 29.7564,-46.6733"/>
</g>
<!-- _condition_hello_1_cond -->
<g id="node4" class="node"><title>_condition_hello_1_cond</title>
<polygon fill="#e8e3c8" stroke="gray" points="345.593,-298.544 345.593,-313.456 328.258,-324 303.742,-324 286.407,-313.456 286.407,-298.544 303.742,-288 328.258,-288 345.593,-298.544"/>
<text text-anchor="middle" x="316" y="-302.3" font-family="Times,serif" font-size="14.00">True</text>
</g>
<!-- CheckMessage&#45;&gt;_condition_hello_1_cond -->
<g id="edge3" class="edge"><title>CheckMessage&#45;&gt;_condition_hello_1_cond</title>
<path fill="none" stroke="black" d="M316,-359.697C316,-351.983 316,-342.712 316,-334.112"/>
<polygon fill="black" stroke="black" points="319.5,-334.104 316,-324.104 312.5,-334.104 319.5,-334.104"/>
</g>
<!-- MessageLength -->
<g id="node5" class="node"><title>MessageLength</title>
<ellipse fill="#66cfa7" stroke="black" cx="316" cy="-234" rx="66.8882" ry="18"/>
<text text-anchor="middle" x="316" y="-230.3" font-family="Times,serif" font-size="14.00">MessageLength</text>
</g>
<!-- _condition_hello_1_cond&#45;&gt;MessageLength -->
<g id="edge5" class="edge"><title>_condition_hello_1_cond&#45;&gt;MessageLength</title>
<path fill="none" stroke="black" d="M316,-287.697C316,-279.983 316,-270.712 316,-262.112"/>
<polygon fill="black" stroke="black" points="319.5,-262.104 316,-252.104 312.5,-262.104 319.5,-262.104"/>
</g>
<!-- MessageLength&#45;&gt;Redis -->
<g id="edge4" class="edge"><title>MessageLength&#45;&gt;Redis</title>
<path fill="none" stroke="#894830" stroke-dasharray="5,2" d="M252.339,-228.383C184.332,-222.049 82.8157,-208.091 57,-180 23.6897,-143.753 27.0272,-81.8814 32.4842,-46.3198"/>
<polygon fill="#894830" stroke="#894830" points="35.9815,-46.6309 34.2076,-36.1857 29.0805,-45.4573 35.9815,-46.6309"/>
</g>
<!-- _condition_hello_2_cond -->
<g id="node6" class="node"><title>_condition_hello_2_cond</title>
<polygon fill="#e8e3c8" stroke="gray" points="566.387,-154.544 566.387,-169.456 419.714,-180 212.286,-180 65.6133,-169.456 65.6133,-154.544 212.286,-144 419.714,-144 566.387,-154.544"/>
<text text-anchor="middle" x="316" y="-158.3" font-family="Times,serif" font-size="14.00">fieldEqual(db.get(&#39;MessageLength&#39;), key=&#39;status&#39;, value=True)</text>
</g>
<!-- MessageLength&#45;&gt;_condition_hello_2_cond -->
<g id="edge6" class="edge"><title>MessageLength&#45;&gt;_condition_hello_2_cond</title>
<path fill="none" stroke="black" d="M316,-215.697C316,-207.983 316,-198.712 316,-190.112"/>
<polygon fill="black" stroke="black" points="319.5,-190.104 316,-180.104 312.5,-190.104 319.5,-190.104"/>
</g>
<!-- _condition_hello_3_cond -->
<g id="node8" class="node"><title>_condition_hello_3_cond</title>
<polygon fill="#e8e3c8" stroke="gray" points="1089.61,-154.544 1089.61,-169.456 941.634,-180 732.366,-180 584.392,-169.456 584.392,-154.544 732.366,-144 941.634,-144 1089.61,-154.544"/>
<text text-anchor="middle" x="837" y="-158.3" font-family="Times,serif" font-size="14.00">fieldEqual(db.get(&#39;MessageLength&#39;), key=&#39;status&#39;, value=False)</text>
</g>
<!-- MessageLength&#45;&gt;_condition_hello_3_cond -->
<g id="edge9" class="edge"><title>MessageLength&#45;&gt;_condition_hello_3_cond</title>
<path fill="none" stroke="black" d="M374.5,-225.14C454.718,-214.362 601.039,-194.703 707.676,-180.376"/>
<polygon fill="black" stroke="black" points="708.424,-183.807 717.869,-179.006 707.492,-176.869 708.424,-183.807"/>
</g>
<!-- SuccessAction -->
<g id="node7" class="node"><title>SuccessAction</title>
<ellipse fill="#66cfa7" stroke="black" cx="222" cy="-90" rx="62.2891" ry="18"/>
<text text-anchor="middle" x="222" y="-86.3" font-family="Times,serif" font-size="14.00">SuccessAction</text>
</g>
<!-- _condition_hello_2_cond&#45;&gt;SuccessAction -->
<g id="edge8" class="edge"><title>_condition_hello_2_cond&#45;&gt;SuccessAction</title>
<path fill="none" stroke="black" d="M292.764,-143.697C280.455,-134.53 265.195,-123.166 252,-113.341"/>
<polygon fill="black" stroke="black" points="253.791,-110.31 243.68,-107.145 249.61,-115.924 253.791,-110.31"/>
</g>
<!-- SuccessAction&#45;&gt;Redis -->
<g id="edge7" class="edge"><title>SuccessAction&#45;&gt;Redis</title>
<path fill="none" stroke="#894830" stroke-dasharray="5,2" d="M185.648,-75.1703C153.472,-62.9294 106.75,-45.1547 74.5225,-32.8944"/>
<polygon fill="#894830" stroke="#894830" points="75.6096,-29.5633 65.0186,-29.2788 73.1205,-36.1059 75.6096,-29.5633"/>
</g>
<!-- _condition_hello_3_cond&#45;&gt;CheckMessage -->
<g id="edge10" class="edge"><title>_condition_hello_3_cond&#45;&gt;CheckMessage</title>
<path fill="none" stroke="black" d="M795.322,-180.119C698.495,-219.891 459.077,-318.231 360.007,-358.924"/>
<polygon fill="black" stroke="black" points="358.508,-355.756 350.588,-362.793 361.168,-362.231 358.508,-355.756"/>
</g>
</g>
</svg>
