<?xml version="1.0" encoding="UTF-8" standalone="no"?>
<!DOCTYPE svg PUBLIC "-//W3C//DTD SVG 1.1//EN"
 "http://www.w3.org/Graphics/SVG/1.1/DTD/svg11.dtd">
<!-- Generated by graphviz version 2.38.0 (20140413.2041)
 -->
<!-- Title: %3 Pages: 1 -->
<svg width="586pt" height="332pt"
 viewBox="0.00 0.00 585.55 332.00" xmlns="http://www.w3.org/2000/svg" xmlns:xlink="http://www.w3.org/1999/xlink">
<g id="graph0" class="graph" transform="scale(1 1) rotate(0) translate(4 328)">
<title>%3</title>
<polygon fill="white" stroke="none" points="-4,4 -4,-328 581.554,-328 581.554,4 -4,4"/>
<!-- _condition_hello_0_cond -->
<g id="node1" class="node"><title>_condition_hello_0_cond</title>
<polygon fill="#e8e3c8" stroke="gray" points="218.593,-298.544 218.593,-313.456 201.258,-324 176.742,-324 159.407,-313.456 159.407,-298.544 176.742,-288 201.258,-288 218.593,-298.544"/>
<text text-anchor="middle" x="189" y="-302.3" font-family="Times,serif" font-size="14.00">True</text>
</g>
<!-- CheckMessage -->
<g id="node2" class="node"><title>CheckMessage</title>
<ellipse fill="#66cfa7" stroke="black" cx="189" cy="-234" rx="64.189" ry="18"/>
<text text-anchor="middle" x="189" y="-230.3" font-family="Times,serif" font-size="14.00">CheckMessage</text>
</g>
<!-- _condition_hello_0_cond&#45;&gt;CheckMessage -->
<g id="edge2" class="edge"><title>_condition_hello_0_cond&#45;&gt;CheckMessage</title>
<path fill="none" stroke="black" d="M189,-287.697C189,-279.983 189,-270.712 189,-262.112"/>
<polygon fill="black" stroke="black" points="192.5,-262.104 189,-252.104 185.5,-262.104 192.5,-262.104"/>
</g>
<!-- Redis -->
<g id="node3" class="node"><title>Redis</title>
<polygon fill="#894830" stroke="black" points="54,-36 0,-36 0,-0 54,-0 54,-36"/>
<text text-anchor="middle" x="27" y="-14.3" font-family="Times,serif" font-size="14.00">Redis</text>
</g>
<!-- CheckMessage&#45;&gt;Redis -->
<g id="edge1" class="edge"><title>CheckMessage&#45;&gt;Redis</title>
<path fill="none" stroke="#894830" stroke-dasharray="5,2" d="M176.288,-216.208C147.967,-178.796 79.5516,-88.42 46.0826,-44.2079"/>
<polygon fill="#894830" stroke="#894830" points="48.7033,-41.8709 39.877,-36.0103 43.1221,-46.096 48.7033,-41.8709"/>
</g>
<!-- _condition_hello_1_cond -->
<g id="node4" class="node"><title>_condition_hello_1_cond</title>
<polygon fill="#e8e3c8" stroke="gray" points="218.593,-154.544 218.593,-169.456 201.258,-180 176.742,-180 159.407,-169.456 159.407,-154.544 176.742,-144 201.258,-144 218.593,-154.544"/>
<text text-anchor="middle" x="189" y="-158.3" font-family="Times,serif" font-size="14.00">True</text>
</g>
<!-- CheckMessage&#45;&gt;_condition_hello_1_cond -->
<g id="edge3" class="edge"><title>CheckMessage&#45;&gt;_condition_hello_1_cond</title>
<path fill="none" stroke="black" d="M189,-215.697C189,-207.983 189,-198.712 189,-190.112"/>
<polygon fill="black" stroke="black" points="192.5,-190.104 189,-180.104 185.5,-190.104 192.5,-190.104"/>
</g>
<!-- MessageLength -->
<g id="node5" class="node"><title>MessageLength</title>
<ellipse fill="#66cfa7" stroke="black" cx="189" cy="-90" rx="66.8882" ry="18"/>
<text text-anchor="middle" x="189" y="-86.3" font-family="Times,serif" font-size="14.00">MessageLength</text>
</g>
<!-- _condition_hello_1_cond&#45;&gt;MessageLength -->
<g id="edge5" class="edge"><title>_condition_hello_1_cond&#45;&gt;MessageLength</title>
<path fill="none" stroke="black" d="M189,-143.697C189,-135.983 189,-126.712 189,-118.112"/>
<polygon fill="black" stroke="black" points="192.5,-118.104 189,-108.104 185.5,-118.104 192.5,-118.104"/>
</g>
<!-- MessageLength&#45;&gt;Redis -->
<g id="edge4" class="edge"><title>MessageLength&#45;&gt;Redis</title>
<path fill="none" stroke="#894830" stroke-dasharray="5,2" d="M153.794,-74.666C130.41,-65.0392 98.8561,-51.8474 63.2158,-36.0164"/>
<polygon fill="#894830" stroke="#894830" points="64.6276,-32.8138 54.0692,-31.9353 61.7752,-39.2063 64.6276,-32.8138"/>
</g>
<!-- _condition_hello_2_cond -->
<g id="node6" class="node"><title>_condition_hello_2_cond</title>
<polygon fill="#e8e3c8" stroke="gray" points="577.608,-10.5442 577.608,-25.4558 429.634,-36 220.366,-36 72.3924,-25.4558 72.3924,-10.5442 220.366,-3.55271e-15 429.634,-0 577.608,-10.5442"/>
<text text-anchor="middle" x="325" y="-14.3" font-family="Times,serif" font-size="14.00">fieldEqual(db.get(&#39;MessageLength&#39;), key=&#39;status&#39;, value=False)</text>
</g>
<!-- MessageLength&#45;&gt;_condition_hello_2_cond -->
<g id="edge6" class="edge"><title>MessageLength&#45;&gt;_condition_hello_2_cond</title>
<path fill="none" stroke="black" d="M218.51,-73.811C237.292,-64.1437 261.916,-51.4696 282.754,-40.7442"/>
<polygon fill="black" stroke="black" points="284.436,-43.8152 291.725,-36.1267 281.232,-37.5912 284.436,-43.8152"/>
</g>
<!-- _condition_hello_2_cond&#45;&gt;CheckMessage -->
<g id="edge7" class="edge"><title>_condition_hello_2_cond&#45;&gt;CheckMessage</title>
<path fill="none" stroke="black" d="M315.31,-36.2415C298.4,-66.0594 262.046,-128.965 228,-180 221.819,-189.266 214.689,-199.162 208.229,-207.863"/>
<polygon fill="black" stroke="black" points="205.252,-205.999 202.053,-216.1 210.853,-210.199 205.252,-205.999"/>
</g>
</g>
</svg>
