<?xml version="1.0" encoding="UTF-8" standalone="no"?>
<!DOCTYPE svg PUBLIC "-//W3C//DTD SVG 1.1//EN"
 "http://www.w3.org/Graphics/SVG/1.1/DTD/svg11.dtd">
<!-- Generated by graphviz version 2.38.0 (20140413.2041)
 -->
<!-- Title: %3 Pages: 1 -->
<svg width="465pt" height="332pt"
 viewBox="0.00 0.00 464.78 332.00" xmlns="http://www.w3.org/2000/svg" xmlns:xlink="http://www.w3.org/1999/xlink">
<g id="graph0" class="graph" transform="scale(1 1) rotate(0) translate(4 328)">
<title>%3</title>
<polygon fill="white" stroke="none" points="-4,4 -4,-328 460.775,-328 460.775,4 -4,4"/>
<!-- _condition_hello_0_cond -->
<g id="node1" class="node"><title>_condition_hello_0_cond</title>
<polygon fill="#e8e3c8" stroke="gray" points="142.879,-298.544 142.879,-313.456 125.543,-324 101.027,-324 83.692,-313.456 83.692,-298.544 101.027,-288 125.543,-288 142.879,-298.544"/>
<text text-anchor="middle" x="113.285" y="-302.3" font-family="Times,serif" font-size="14.00">True</text>
</g>
<!-- HelloTask -->
<g id="node2" class="node"><title>HelloTask</title>
<ellipse fill="#66cfa7" stroke="black" cx="113.285" cy="-234" rx="47.3916" ry="18"/>
<text text-anchor="middle" x="113.285" y="-230.3" font-family="Times,serif" font-size="14.00">HelloTask</text>
</g>
<!-- _condition_hello_0_cond&#45;&gt;HelloTask -->
<g id="edge2" class="edge"><title>_condition_hello_0_cond&#45;&gt;HelloTask</title>
<path fill="none" stroke="black" d="M113.285,-287.697C113.285,-279.983 113.285,-270.712 113.285,-262.112"/>
<polygon fill="black" stroke="black" points="116.786,-262.104 113.285,-252.104 109.786,-262.104 116.786,-262.104"/>
</g>
<!-- Redis -->
<g id="node3" class="node"><title>Redis</title>
<polygon fill="#894830" stroke="black" points="103.285,-36 49.2854,-36 49.2854,-0 103.285,-0 103.285,-36"/>
<text text-anchor="middle" x="76.2854" y="-14.3" font-family="Times,serif" font-size="14.00">Redis</text>
</g>
<!-- HelloTask&#45;&gt;Redis -->
<g id="edge1" class="edge"><title>HelloTask&#45;&gt;Redis</title>
<path fill="none" stroke="#894830" stroke-dasharray="5,2" d="M73.8213,-223.882C50.6813,-216.288 23.3143,-202.895 9.28544,-180 -18.2746,-135.023 22.716,-76.6902 51.7121,-44.0162"/>
<polygon fill="#894830" stroke="#894830" points="54.6142,-46.0288 58.7765,-36.2858 49.4469,-41.3066 54.6142,-46.0288"/>
</g>
<!-- _condition_hello_1_cond -->
<g id="node4" class="node"><title>_condition_hello_1_cond</title>
<polygon fill="#e8e3c8" stroke="gray" points="456.765,-154.544 456.765,-169.456 328.197,-180 146.374,-180 17.8061,-169.456 17.8061,-154.544 146.374,-144 328.197,-144 456.765,-154.544"/>
<text text-anchor="middle" x="237.285" y="-158.3" font-family="Times,serif" font-size="14.00">fieldEqual(db.get(&#39;HelloTask&#39;), key=&#39;foo&#39;, value=&#39;Bar&#39;)</text>
</g>
<!-- HelloTask&#45;&gt;_condition_hello_1_cond -->
<g id="edge3" class="edge"><title>HelloTask&#45;&gt;_condition_hello_1_cond</title>
<path fill="none" stroke="black" d="M138.678,-218.666C155.805,-208.997 178.739,-196.051 198.179,-185.076"/>
<polygon fill="black" stroke="black" points="200.127,-187.996 207.115,-180.032 196.686,-181.9 200.127,-187.996"/>
</g>
<!-- ValidateMessage -->
<g id="node5" class="node"><title>ValidateMessage</title>
<ellipse fill="#66cfa7" stroke="black" cx="163.285" cy="-90" rx="71.4873" ry="18"/>
<text text-anchor="middle" x="163.285" y="-86.3" font-family="Times,serif" font-size="14.00">ValidateMessage</text>
</g>
<!-- _condition_hello_1_cond&#45;&gt;ValidateMessage -->
<g id="edge5" class="edge"><title>_condition_hello_1_cond&#45;&gt;ValidateMessage</title>
<path fill="none" stroke="black" d="M218.993,-143.697C209.716,-134.921 198.31,-124.132 188.24,-114.606"/>
<polygon fill="black" stroke="black" points="190.528,-111.952 180.858,-107.622 185.717,-117.037 190.528,-111.952"/>
</g>
<!-- ValidateMessage&#45;&gt;Redis -->
<g id="edge4" class="edge"><title>ValidateMessage&#45;&gt;Redis</title>
<path fill="none" stroke="#894830" stroke-dasharray="5,2" d="M142.668,-72.411C131.644,-63.5417 117.881,-52.4675 105.749,-42.706"/>
<polygon fill="#894830" stroke="#894830" points="107.649,-39.7428 97.6638,-36.201 103.261,-45.1967 107.649,-39.7428"/>
</g>
</g>
</svg>
